<svg width="81" height="30" viewBox="0 0 81 30" fill="none" xmlns="http://www.w3.org/2000/svg">
<path d="M2.11364 24V6.54545H12.6477V8.42045H4.22727V14.3182H12.1023V16.1932H4.22727V22.125H12.7841V24H2.11364ZM18.196 16.125V24H16.1847V10.9091H18.1278V12.9545H18.2983C18.6051 12.2898 19.071 11.7557 19.696 11.3523C20.321 10.9432 21.1278 10.7386 22.1165 10.7386C23.0028 10.7386 23.7784 10.9205 24.4432 11.2841C25.108 11.642 25.625 12.1875 25.9943 12.9205C26.3636 13.6477 26.5483 14.5682 26.5483 15.6818V24H24.5369V15.8182C24.5369 14.7898 24.2699 13.9886 23.7358 13.4148C23.2017 12.8352 22.4688 12.5455 21.5369 12.5455C20.8949 12.5455 20.321 12.6847 19.8153 12.9631C19.3153 13.2415 18.9205 13.6477 18.6307 14.1818C18.3409 14.7159 18.196 15.3636 18.196 16.125ZM35.5078 29.1818C34.5362 29.1818 33.701 29.0568 33.0021 28.8068C32.3033 28.5625 31.7209 28.2386 31.255 27.8352C30.7947 27.4375 30.4283 27.0114 30.1555 26.5568L31.7578 25.4318C31.9396 25.6705 32.1697 25.9432 32.4482 26.25C32.7266 26.5625 33.1072 26.8324 33.5902 27.0597C34.0788 27.2926 34.718 27.4091 35.5078 27.4091C36.5646 27.4091 37.4368 27.1534 38.1243 26.642C38.8118 26.1307 39.1555 25.3295 39.1555 24.2386V21.5795H38.9851C38.8374 21.8182 38.6271 22.1136 38.3544 22.4659C38.0874 22.8125 37.701 23.1222 37.1953 23.3949C36.6953 23.6619 36.0192 23.7955 35.1669 23.7955C34.1101 23.7955 33.1612 23.5455 32.3203 23.0455C31.4851 22.5455 30.8232 21.8182 30.3345 20.8636C29.8516 19.9091 29.6101 18.75 29.6101 17.3864C29.6101 16.0455 29.8459 14.8778 30.3175 13.8835C30.7891 12.8835 31.4453 12.1108 32.2862 11.5653C33.1271 11.0142 34.0987 10.7386 35.201 10.7386C36.0533 10.7386 36.7294 10.8807 37.2294 11.1648C37.7351 11.4432 38.1214 11.7614 38.3885 12.1193C38.6612 12.4716 38.8714 12.7614 39.0192 12.9886H39.2237V10.9091H41.1669V24.375C41.1669 25.5 40.9112 26.4148 40.3999 27.1193C39.8942 27.8295 39.2124 28.3494 38.3544 28.679C37.5021 29.0142 36.5533 29.1818 35.5078 29.1818ZM35.4396 21.9886C36.2464 21.9886 36.9283 21.804 37.4851 21.4347C38.0419 21.0653 38.4652 20.5341 38.755 19.8409C39.0447 19.1477 39.1896 18.3182 39.1896 17.3523C39.1896 16.4091 39.0476 15.5767 38.7635 14.8551C38.4794 14.1335 38.0589 13.5682 37.5021 13.1591C36.9453 12.75 36.2578 12.5455 35.4396 12.5455C34.5874 12.5455 33.8771 12.7614 33.3089 13.1932C32.7464 13.625 32.3232 14.2045 32.0391 14.9318C31.7607 15.6591 31.6214 16.4659 31.6214 17.3523C31.6214 18.2614 31.7635 19.0653 32.0476 19.7642C32.3374 20.4574 32.7635 21.0028 33.326 21.4006C33.8942 21.7926 34.5987 21.9886 35.4396 21.9886ZM51.2749 24V6.54545H58.1612C59.4794 6.54545 60.6044 6.78125 61.5362 7.25284C62.4737 7.71875 63.1868 8.38068 63.6754 9.23864C64.1697 10.0909 64.4169 11.0937 64.4169 12.2472C64.4169 13.4062 64.1669 14.4034 63.6669 15.2386C63.1669 16.0682 62.4425 16.7045 61.4936 17.1477C60.5504 17.5909 59.4084 17.8125 58.0675 17.8125H53.4567V14.8466H57.4709C58.1754 14.8466 58.7607 14.75 59.2266 14.5568C59.6925 14.3636 60.0391 14.0739 60.2663 13.6875C60.4993 13.3011 60.6158 12.821 60.6158 12.2472C60.6158 11.6676 60.4993 11.179 60.2663 10.7812C60.0391 10.3835 59.6896 10.0824 59.218 9.87784C58.7521 9.66761 58.1641 9.5625 57.4538 9.5625H54.9652V24H51.2749ZM60.701 16.0568L65.0391 24H60.9652L56.7209 16.0568H60.701ZM75.3516 18.4261V10.9091H78.9822V24H75.4964V21.6222H75.3601C75.0646 22.3892 74.5732 23.0057 73.8857 23.4716C73.2038 23.9375 72.3714 24.1705 71.3885 24.1705C70.5135 24.1705 69.7436 23.9716 69.0788 23.5739C68.4141 23.1761 67.8942 22.6108 67.5192 21.8778C67.1499 21.1449 66.9624 20.267 66.9567 19.2443V10.9091H70.5874V18.5966C70.593 19.3693 70.8004 19.9801 71.2095 20.429C71.6186 20.8778 72.1669 21.1023 72.8544 21.1023C73.2919 21.1023 73.701 21.0028 74.0817 20.804C74.4624 20.5994 74.7692 20.2983 75.0021 19.9006C75.2408 19.5028 75.3572 19.0114 75.3516 18.4261Z" fill="black"/>
<line x1="46.5" y1="3" x2="46.5" y2="29" stroke="black"/>
</svg>
