<svg width="81" height="30" viewBox="0 0 81 30" fill="none" xmlns="http://www.w3.org/2000/svg">
<path d="M1.51705 24V6.54545H13.2784V9.58807H5.20739V13.7472H12.6733V16.7898H5.20739V20.9574H13.3125V24H1.51705ZM19.7749 16.4318V24H16.1442V10.9091H19.6044V13.2188H19.7578C20.0476 12.4574 20.5334 11.8551 21.2152 11.4119C21.897 10.9631 22.7237 10.7386 23.6953 10.7386C24.6044 10.7386 25.397 10.9375 26.0732 11.3352C26.7493 11.733 27.2749 12.3011 27.6499 13.0398C28.0249 13.7727 28.2124 14.6477 28.2124 15.6648V24H24.5817V16.3125C24.5874 15.5114 24.3828 14.8864 23.968 14.4375C23.5533 13.983 22.9822 13.7557 22.255 13.7557C21.7663 13.7557 21.3345 13.8608 20.9595 14.071C20.5902 14.2812 20.3004 14.5881 20.0902 14.9915C19.8857 15.3892 19.7805 15.8693 19.7749 16.4318ZM36.9716 29.1818C35.7955 29.1818 34.7869 29.0199 33.946 28.696C33.1108 28.3778 32.446 27.9432 31.9517 27.392C31.4574 26.8409 31.1364 26.2216 30.9886 25.5341L34.3466 25.0824C34.4489 25.3438 34.6108 25.5881 34.8324 25.8153C35.054 26.0426 35.3466 26.2244 35.7102 26.3608C36.0795 26.5028 36.5284 26.5739 37.0568 26.5739C37.8466 26.5739 38.4972 26.3807 39.0085 25.9943C39.5256 25.6136 39.7841 24.9744 39.7841 24.0767V21.6818H39.6307C39.4716 22.0455 39.233 22.3892 38.9148 22.7131C38.5966 23.0369 38.1875 23.3011 37.6875 23.5057C37.1875 23.7102 36.5909 23.8125 35.8977 23.8125C34.9148 23.8125 34.0199 23.5852 33.2131 23.1307C32.4119 22.6705 31.7727 21.9687 31.2955 21.0256C30.8239 20.0767 30.5881 18.8778 30.5881 17.429C30.5881 15.946 30.8295 14.7074 31.3125 13.7131C31.7955 12.7187 32.4375 11.9744 33.2386 11.4801C34.0455 10.9858 34.929 10.7386 35.8892 10.7386C36.6222 10.7386 37.2358 10.8636 37.7301 11.1136C38.2244 11.358 38.6222 11.6648 38.9233 12.0341C39.2301 12.3977 39.4659 12.7557 39.6307 13.108H39.767V10.9091H43.3722V24.1278C43.3722 25.2415 43.0994 26.1733 42.554 26.9233C42.0085 27.6733 41.2528 28.2358 40.2869 28.6108C39.3267 28.9915 38.2216 29.1818 36.9716 29.1818ZM37.0483 21.0852C37.6335 21.0852 38.1278 20.9403 38.5312 20.6506C38.9403 20.3551 39.2528 19.9347 39.4688 19.3892C39.6903 18.8381 39.8011 18.179 39.8011 17.4119C39.8011 16.6449 39.6932 15.9801 39.4773 15.4176C39.2614 14.8494 38.9489 14.4091 38.5398 14.0966C38.1307 13.7841 37.6335 13.6278 37.0483 13.6278C36.4517 13.6278 35.9489 13.7898 35.5398 14.1136C35.1307 14.4318 34.821 14.875 34.6108 15.4432C34.4006 16.0114 34.2955 16.6676 34.2955 17.4119C34.2955 18.1676 34.4006 18.821 34.6108 19.3722C34.8267 19.9176 35.1364 20.3409 35.5398 20.642C35.9489 20.9375 36.4517 21.0852 37.0483 21.0852ZM52.4808 24V6.54545H58.3786C59.7422 6.54545 60.8615 6.77841 61.7365 7.24432C62.6115 7.70454 63.2592 8.33807 63.6797 9.14489C64.1001 9.9517 64.3104 10.8693 64.3104 11.8977C64.3104 12.9261 64.1001 13.8381 63.6797 14.6335C63.2592 15.429 62.6143 16.054 61.745 16.5085C60.8757 16.9574 59.7649 17.1818 58.4126 17.1818H53.6399V15.2727H58.3445C59.2763 15.2727 60.0263 15.1364 60.5945 14.8636C61.1683 14.5909 61.5831 14.2045 61.8388 13.7045C62.1001 13.1989 62.2308 12.5966 62.2308 11.8977C62.2308 11.1989 62.1001 10.5881 61.8388 10.0653C61.5774 9.54261 61.1598 9.1392 60.5859 8.85511C60.0121 8.56534 59.2536 8.42045 58.3104 8.42045H54.5945V24H52.4808ZM60.6967 16.1591L64.9922 24H62.5376L58.3104 16.1591H60.6967ZM75.8097 18.6477V10.9091H77.821V24H75.8097V21.7841H75.6733C75.3665 22.4489 74.8892 23.0142 74.2415 23.4801C73.5938 23.9403 72.7756 24.1705 71.7869 24.1705C70.9688 24.1705 70.2415 23.9915 69.6051 23.6335C68.9688 23.2699 68.4688 22.7244 68.1051 21.9972C67.7415 21.2642 67.5597 20.3409 67.5597 19.2273V10.9091H69.571V19.0909C69.571 20.0455 69.8381 20.8068 70.3722 21.375C70.9119 21.9432 71.5994 22.2273 72.4347 22.2273C72.9347 22.2273 73.4432 22.0994 73.9602 21.8438C74.483 21.5881 74.9205 21.196 75.2727 20.6676C75.6307 20.1392 75.8097 19.4659 75.8097 18.6477Z" fill="black"/>
<line x1="48.5" y1="3" x2="48.5" y2="29" stroke="black"/>
</svg>
