<svg width="430" height="69" viewBox="0 0 430 69" fill="none" xmlns="http://www.w3.org/2000/svg">
<path d="M43.5007 1.41183H40.6841H34.1121H31.3998H14.2916H14.1873C13.6657 1.41183 13.0398 1.41183 12.5182 1.41183H0V7.73175V7.82334V9.28883C0 9.6552 0 10.0216 0 10.3879C0 10.3879 0 10.3879 0 10.4795V14.3264H14.6046V66.168H39.328V14.3264H54.0369V1.41183H43.5007Z" fill="#B06826"/>
<path d="M42.9792 1.41183H42.3533H33.2776H31.6085C31.2955 2.23617 31.5042 3.33528 31.8171 4.06803C32.3387 5.35033 33.3819 6.35785 34.738 6.9074C37.4503 8.09811 40.8928 7.18218 42.3533 4.89236C42.8749 3.88484 43.2921 2.51095 42.9792 1.41183Z" fill="#FF9100"/>
<path d="M13.9786 1.41183C13.5614 1.41183 13.2484 1.41183 12.8311 1.41183H0.730228C0.62591 1.41183 0.62591 1.41183 0.521591 1.41183C0.312955 1.50343 0 1.59502 0 1.8698V8.09811C0 8.83086 0 9.47201 0 10.2048C0.521591 10.3879 1.04318 10.5711 1.66909 10.7543C3.4425 11.1207 5.42455 11.2123 7.19796 10.8459C10.7448 10.2963 14.083 7.91493 14.5002 4.61758C14.6046 3.51847 14.5002 2.41936 13.9786 1.41183Z" fill="#FF9100"/>
<path d="M30.9825 40.7052C29.3135 38.049 26.6012 36.034 23.6803 34.3853C21.9069 33.3778 20.1334 32.5534 18.0471 32.0039C17.0039 31.7291 15.8564 31.5459 14.8132 31.4543C14.7089 31.4543 14.6046 31.4543 14.6046 31.4543V32.645V53.2534V54.3525C15.8564 54.9937 17.4212 55.1769 18.7773 55.1769C20.4464 55.2685 22.2198 54.9937 23.8889 54.6273C27.1228 53.803 30.3566 51.8795 31.7128 49.1317C33.0689 46.4755 32.6516 43.2698 30.9825 40.7052Z" fill="#FF9100"/>
<path d="M115.376 14.2349C114.854 11.5787 113.394 9.10566 110.995 6.81584C108.491 4.52602 105.257 2.87734 101.189 1.68664C97.6419 0.770707 93.7821 0.22115 89.4008 0.0379639C89.2964 0.0379639 89.2964 0.0379639 89.1921 0.0379639C89.1921 0.0379639 89.1921 0.0379639 89.0878 0.0379639C89.0878 0.0379639 89.0878 0.0379639 88.9835 0.0379639C88.9835 0.0379639 88.9835 0.0379639 88.8792 0.0379639C88.7748 0.0379639 88.6705 0.0379639 88.5662 0.0379639C88.1489 0.0379639 87.7317 0.0379639 87.4187 0.0379639C83.8719 0.0379639 80.7423 0.312743 77.8214 0.770707C77.7171 0.770707 77.7171 0.770707 77.6128 0.8623C77.6128 0.8623 77.6128 0.8623 77.5085 0.8623H77.4042C77.2998 0.8623 77.1955 0.8623 77.0912 0.8623C76.8826 0.8623 76.7782 0.953893 76.5696 0.953893C76.361 0.953893 76.2567 1.04549 76.048 1.04549C75.8394 1.04549 75.7351 1.13708 75.5264 1.13708C74.7962 1.32026 73.9617 1.50345 73.3357 1.68664C69.2673 2.87734 66.1378 4.61761 63.7385 6.81584C61.3391 9.01407 59.983 11.4871 59.5657 14.2349C59.1485 16.9826 58.9398 21.5623 58.9398 28.0654V39.1481C58.9398 45.8344 59.1485 50.5056 59.67 53.1618C60.1916 55.818 61.6521 58.291 64.0514 60.5809C66.5551 62.8707 69.7889 64.5194 73.8573 65.7101C77.9258 66.9008 82.5158 67.4503 87.523 67.4503C92.8433 67.4503 97.5376 66.8092 101.606 65.6185C105.674 64.4278 108.804 62.6875 111.203 60.4893C113.603 58.291 114.959 55.818 115.376 53.0702C115.793 50.3225 116.002 45.7428 116.002 39.2397V28.2486C116.002 21.5623 115.793 16.8911 115.376 14.2349ZM91.3828 22.5698V47.7579C91.3828 51.6048 91.1742 53.9862 90.6526 54.9937C90.2353 56.0012 89.0878 56.5508 87.4187 56.5508C85.7496 56.5508 84.7064 56.0928 84.2892 55.2685C83.8719 54.3525 83.6633 52.0627 83.6633 48.3074V18.0818C83.6633 14.7844 83.9762 12.7694 84.7064 12.0366C85.4367 11.3955 86.3755 11.0291 87.6274 11.0291C89.1921 11.0291 90.131 11.4871 90.6526 12.3114C91.1742 13.1357 91.3828 15.0592 91.3828 18.0818V19.0893V22.5698Z" fill="#B06826"/>
<path d="M76.3609 33.2862C76.1523 30.9963 75.6307 28.7065 74.7962 26.5083C74.4832 25.7755 74.1703 25.1344 73.8573 24.4016V24.3101C73.6487 23.6689 73.2314 23.1193 72.9184 22.6614C72.9184 22.6614 72.9184 22.5698 72.8141 22.5698C71.8753 21.3791 70.6234 20.4632 69.163 19.9136C69.163 19.9136 69.0587 19.9136 69.0587 19.822C68.9543 19.822 68.85 19.822 68.6414 19.822C67.8069 19.6388 66.9723 19.7304 66.1378 20.0052C63.9471 20.7379 63.1125 22.5698 62.4866 24.4016C61.3391 28.157 61.5478 32.187 63.2168 35.7592C64.6773 38.9649 67.5982 42.9034 72.0839 42.4454C76.7782 41.8959 76.5696 36.4919 76.3609 33.2862Z" fill="#FF9100"/>
<path d="M85.9583 59.4817C84.8108 57.6499 82.5158 55.9096 79.9078 56.4592C77.5085 57.0087 76.2567 59.2985 75.7351 61.3136C75.4221 62.6875 75.3178 64.153 75.5265 65.5269C75.5265 65.71 75.6308 65.9848 75.6308 66.2596C75.7351 66.2596 75.7351 66.2596 75.8394 66.3512H75.9437C76.048 66.3512 76.048 66.3512 76.1524 66.3512C76.2567 66.3512 76.2567 66.3512 76.2567 66.3512H76.361C77.8215 67.0839 79.5949 67.0839 81.264 67.2671C82.2028 67.3587 83.246 67.4503 84.1849 67.5419C84.7065 67.5419 85.3324 67.5419 85.854 67.3587C85.9583 67.3587 86.0626 67.3587 86.1669 67.3587C86.3756 67.3587 86.5842 67.3587 86.6885 67.3587C86.8971 66.7176 87.1058 66.0764 87.1058 65.4353C87.6274 63.5118 87.1058 61.3136 85.9583 59.4817Z" fill="#FF9100"/>
<path d="M101.502 23.4857C100.563 20.8295 98.6851 18.4481 95.3469 18.1733C93.8865 18.0817 92.426 18.3565 91.2785 19.0893V19.2725C91.2785 19.364 91.2785 19.4556 91.2785 19.5472V20.0052V20.0968V20.1884V39.6977V40.7052C93.3649 40.8884 95.5556 40.3388 97.329 39.3313C99.9369 37.7742 101.606 35.3012 102.232 32.645C103.066 29.714 102.649 26.4167 101.502 23.4857Z" fill="#FF9100"/>
<path d="M89.1921 0.037939C89.1921 0.037939 89.1921 0.129532 89.1921 0.037939C89.1921 0.129532 89.1921 0.129532 89.1921 0.037939C89.1921 0.129532 89.1921 0.129532 89.1921 0.037939C89.0878 0.037939 89.0878 0.037939 89.0878 0.037939C89.0878 0.037939 89.0878 0.037939 88.9835 0.037939C88.8792 0.037939 88.7748 0.037939 88.6705 0.037939C88.5662 0.037939 88.5662 0.037939 88.4619 0.037939C88.3576 0.037939 88.2532 0.037939 88.1489 0.037939C88.1489 0.037939 88.1489 0.037939 88.1489 0.129532C87.836 0.037939 87.523 0.037939 87.2101 0.037939C85.4366 -0.0536539 83.5589 0.037939 81.7855 0.129532C80.4294 0.221125 78.8646 0.312718 77.6128 0.862275H77.5085C77.4041 0.862275 77.2998 0.862275 77.1955 0.862275C76.9869 0.862275 76.8825 0.953868 76.6739 0.953868C76.4653 0.953868 76.361 1.04546 76.1523 1.04546C76.048 1.04546 75.8394 1.13705 75.735 1.13705C75.735 1.7782 75.8394 2.41935 75.9437 2.87732C76.4653 4.52599 77.8214 5.80829 79.5948 6.54104C83.246 7.91493 87.1057 5.80829 88.4619 2.78573C88.8792 2.05298 89.0878 1.04546 89.1921 0.037939Z" fill="#FF9100"/>
<path d="M180.366 42.9034V40.8884V21.5623V19.5472V1.41183H159.711V30.5384L145.941 1.41183H137.491H137.387H134.466C134.362 1.41183 134.362 1.41183 134.362 1.41183H125.391V66.168H146.046V36.7667L151.262 48.7654L151.366 48.8569C151.366 48.9485 151.47 48.9485 151.47 49.0401C151.47 49.1317 151.47 49.1317 151.574 49.2233C151.574 49.3149 151.574 49.3149 151.679 49.4065C151.679 49.4981 151.679 49.4981 151.679 49.5897L155.747 58.8406C155.852 59.0238 155.956 59.2069 156.06 59.4817C156.06 59.5733 156.164 59.6649 156.164 59.7565C156.164 59.8481 156.164 59.8481 156.164 59.9397L158.877 66.2596H165.762H167.118H180.575L180.366 42.9034Z" fill="#B06826"/>
<path d="M135.092 1.41183C135.405 2.41936 135.405 3.51847 135.197 4.61759C134.884 6.26626 133.84 7.64015 132.171 8.46449C130.502 9.28882 128.624 9.47201 126.747 9.28882C126.225 9.28882 125.808 9.19723 125.286 9.10564V10.3879C125.495 10.3879 125.808 10.4795 126.016 10.4795C128.207 10.7543 130.398 10.5711 132.38 9.74679C136.031 8.18971 137.179 4.61759 136.448 1.41183H135.092Z" fill="#FF9100"/>
<path d="M137.884 64.007C137.675 62.9079 137.467 61.7172 137.049 60.6181C136.319 58.4199 135.276 56.3132 133.92 54.4814C132.668 52.8327 131.103 51.2756 128.704 51.184C127.452 51.0924 126.305 51.4588 125.262 52.0084V65.7473C125.262 66.1137 125.679 66.2053 125.887 66.2053C125.887 66.2053 125.887 66.2053 125.992 66.2053H137.154H138.093C138.093 65.3809 137.988 64.6482 137.884 64.007Z" fill="#FF9100"/>
<path d="M167.401 62.8765C167.19 61.2818 166.452 59.5934 165.081 58.5615C162.551 56.4978 158.545 56.7792 156.015 58.6553C155.91 58.7491 155.91 58.7491 155.805 58.8429V58.9367C155.805 59.0305 155.805 59.0305 155.805 59.1243C156.753 61.4694 157.807 63.8145 158.756 66.1596C158.756 66.2534 158.862 66.3472 158.967 66.3472H159.6H159.705H163.5H163.606H166.03H166.874C166.979 66.1596 167.084 65.972 167.084 65.7844C167.401 64.8464 167.506 63.8145 167.401 62.8765Z" fill="#FF9100"/>
<path d="M154.715 41.677C154.297 38.4713 152.211 35.5403 148.977 33.8916C147.308 33.0673 145.326 32.5177 143.344 32.8841C141.571 33.2505 140.215 34.3496 139.484 35.8151C138.754 37.3722 138.545 39.0208 138.441 40.6695C138.337 42.593 138.65 44.4248 139.276 46.2567C140.006 48.0885 141.153 49.8288 142.822 51.0195C143.657 51.5691 144.793 52.179 145.732 52.4538C145.837 52.4538 145.835 52.4538 146.043 52.4538V50.5245L146.22 37.9038C147.993 41.6591 149.395 45.1576 151.168 48.9129L151.272 49.0045C151.272 49.0961 151.377 49.0961 151.377 49.1876C151.377 49.2792 151.377 49.2792 151.481 49.3708C151.481 49.4624 151.481 49.4624 151.585 49.554V49.6456L151.69 49.554C151.898 49.3708 152.002 49.1877 152.211 49.0045C152.211 49.0045 152.211 49.0045 152.315 48.9129C152.42 48.8213 152.524 48.7297 152.628 48.6381C153.15 47.9969 153.672 47.2642 153.985 46.5315C154.506 45.066 154.923 43.3257 154.715 41.677Z" fill="#FF9100"/>
<path d="M180.403 21.2165C180.403 21.1249 180.403 21.1249 180.403 21.2165V19.751C175.395 22.0408 171.849 26.5289 169.971 31.2001C168.928 33.7647 168.302 36.7873 169.554 39.4435C170.597 41.6417 172.996 43.2904 175.708 43.6568C177.273 43.84 178.838 43.5652 180.09 42.924C180.211 42.8619 180.353 42.7999 180.353 42.7999V42.177V39.8098V37.318V32.4591V32.3345V32.0853L180.403 21.5984V21.2165Z" fill="#FF9100"/>
<path d="M264.656 18.3565V18.0817C264.551 14.7844 264.238 12.3114 263.717 10.5711C263.091 8.64767 261.839 6.999 260.066 5.62511C258.396 4.4344 255.997 3.42688 252.972 2.69414C252.763 2.69414 252.45 2.60254 252.242 2.60254C250.364 2.14458 248.486 2.05299 246.608 1.8698C246.504 1.8698 246.504 1.8698 246.4 1.8698H246.296C245.357 1.77821 244.418 1.68661 243.479 1.68661C243.062 1.68661 242.54 1.59502 242.123 1.59502C241.914 1.59502 241.601 1.59502 241.393 1.50343C241.288 1.50343 241.184 1.50343 241.08 1.50343C240.871 1.50343 240.662 1.50343 240.349 1.50343H240.245C238.993 1.50343 237.741 1.41183 236.385 1.41183H211.558V65.8016C211.558 65.8932 211.558 65.8932 211.558 65.9848C211.558 65.9848 211.558 65.9848 211.558 66.0764C211.558 66.0764 211.558 66.0764 211.662 66.0764C211.662 66.0764 211.662 66.0764 211.766 66.0764H236.281V40.064H242.957C248.382 40.064 252.763 39.5145 256.101 38.507C259.44 37.4994 261.735 36.034 262.986 34.1105C264.238 32.187 264.864 29.1645 264.864 25.0428V19.364C264.655 19.0893 264.656 18.7229 264.656 18.3565ZM244.105 23.1194C244.105 25.5008 243.688 27.0578 242.749 27.8822C241.81 28.7065 240.245 28.9813 238.054 28.9813C237.533 28.9813 236.907 28.9813 236.281 28.9813V20.0968V17.5322V12.4946C239.515 12.4946 241.601 12.8609 242.644 13.5021C243.688 14.1432 244.209 15.6087 244.209 17.807V23.1194H244.105Z" fill="#B06826"/>
<path d="M238.367 28.9813H237.324H236.803C236.698 28.9813 236.594 28.9813 236.49 28.9813H236.385H236.281V19.364C236.281 19.364 236.281 19.364 236.281 19.2725V17.9902H236.177C235.551 17.807 234.82 17.6238 234.09 17.6238C232.734 17.6238 231.482 17.807 230.23 18.2649C227.622 19.2725 225.64 21.1043 224.806 23.4857C223.971 25.8671 224.389 28.5233 225.849 30.63C227.414 32.645 230.23 34.2021 233.047 34.0189C235.864 33.9273 238.576 31.6375 238.367 28.9813Z" fill="#FF9100"/>
<path d="M219.903 60.1229C219.903 59.8481 219.799 59.5733 219.694 59.3901V59.2986C218.964 56.8255 217.191 54.5357 214.27 53.803C213.539 53.6198 212.496 53.4366 211.453 53.5282V54.3525C211.453 54.3525 211.453 54.3525 211.453 54.4441V65.8016C211.453 65.8016 211.453 65.8016 211.453 65.8932C211.453 65.9848 211.453 65.9848 211.453 66.0764C211.453 66.168 211.557 66.168 211.557 66.168H212.079H217.712H218.755C218.964 65.7101 219.173 65.2521 219.277 64.7025C219.903 63.237 220.112 61.68 219.903 60.1229Z" fill="#FF9100"/>
<path d="M219.277 1.41183H218.547H212.079C211.975 1.41183 211.975 1.41183 211.871 1.41183C211.429 1.43647 211.571 1.31188 211.558 1.8698V5.7167V6.54103C211.766 6.54103 211.871 6.54103 212.079 6.54103C213.853 6.54103 215.835 6.44944 217.399 5.7167C219.173 4.80077 219.59 3.06051 219.277 1.41183Z" fill="#FF9100"/>
<path d="M252.346 2.60255C252.242 2.60255 252.242 2.60255 252.137 2.60255C250.26 2.14458 248.382 2.05299 246.504 1.8698C246.4 1.8698 246.4 1.8698 246.295 1.8698H246.191C245.252 1.77821 244.313 1.68662 243.375 1.68662C242.957 1.68662 242.436 1.59503 242.018 1.59503C241.81 1.59503 241.497 1.59503 241.288 1.50343C241.184 1.50343 241.08 1.50343 240.975 1.50343C240.871 1.50343 240.662 1.50343 240.558 1.50343C241.393 2.96892 243.062 4.25122 244.939 4.61759C247.652 5.16715 250.677 4.4344 252.659 2.69414C252.659 2.69414 252.45 2.60255 252.346 2.60255ZM250.468 3.1521C249.008 3.79325 247.339 4.06803 245.67 3.79325C244.418 3.61007 243.27 3.06051 242.436 2.32777C243.688 2.41936 245.044 2.51095 246.295 2.60255C247.026 2.69414 247.86 2.69414 248.59 2.78573C249.216 2.87733 249.947 2.87733 250.468 3.1521Z" fill="#FF9100"/>
<path d="M264.931 20.8295C264.868 20.0002 264.924 20.2016 264.924 19.3772C264.924 19.2857 264.783 18.5945 264.783 18.3805L264.658 17.7904C264.658 17.7904 264.658 17.7904 264.658 17.5764C264.345 17.7596 264.201 17.807 263.888 18.0817C263.784 18.0817 263.784 18.1733 263.679 18.1733C262.115 19.364 261.176 21.1043 260.759 22.8446C260.237 25.5008 260.028 30.4468 264.201 30.7216H264.305C264.305 30.63 264.305 30.63 264.41 30.5384C264.41 30.4468 264.41 30.4468 264.41 30.3552V30.4468C264.41 30.3552 264.499 30.3081 264.499 30.2165C264.499 30.0333 264.483 29.8468 264.499 29.7181L264.618 29.3477C264.618 29.2561 264.618 29.2561 264.618 29.1645C264.931 27.8822 265.029 26.6068 264.924 25.2329C264.924 25.1413 264.924 24.9507 264.924 24.8592C264.924 23.4887 265.036 22.2034 264.931 20.8295Z" fill="#FF9100"/>
<path d="M296.473 53.2534V38.9649H311.912V26.6915H310.868H297.516H296.473V14.3264H312.955V1.41183H271.749V25.8671V27.4242V66.0764H314.624V53.2534H296.473Z" fill="#B06826"/>
<path d="M289.475 64.8738C289.162 63.2251 288.223 61.7596 286.658 60.8437C285.093 59.9277 283.111 59.9277 281.442 60.5689C279.669 61.3016 278.417 62.6755 277.687 64.2326C277.478 64.8738 277.27 65.3653 277.27 66.0981H278.972H288.48H289.473C289.473 65.5485 289.579 65.3317 289.475 64.8738Z" fill="#FF9100"/>
<path d="M309.095 26.6915H307.948H299.602H297.829C297.62 27.241 297.411 27.699 297.307 28.2486C296.89 30.172 297.516 32.2786 299.185 33.7441C300.854 35.2096 303.253 35.4844 305.34 34.5685C307.635 33.6525 308.886 31.6375 309.199 29.5309C309.304 28.5233 309.199 27.6074 309.095 26.6915Z" fill="#FF9100"/>
<path d="M271.735 14.7675V16.0133V16.2625V26.105V27.1017C273.926 26.0026 275.609 23.8521 275.817 21.6538C276.13 18.9061 274.343 16.0498 271.735 14.7675Z" fill="#FF9100"/>
<path d="M288.023 1.41183H277.382H276.235C276.235 2.05298 276.444 2.69413 276.652 3.33528C277.278 5.07555 278.634 6.54104 280.512 7.27378C282.285 8.00652 284.372 8.00652 286.041 6.999C287.71 6.08307 288.649 4.4344 288.962 2.78573C289.066 2.32776 289.066 1.8698 289.066 1.41183H288.023Z" fill="#FF9100"/>
<path d="M330.898 1.41183H328.707C328.707 1.41183 328.707 1.41183 328.603 1.41183H315.876V7.45697V9.83838V14.3264H330.48V66.168H355.204V14.3264H369.913V1.41183H330.898Z" fill="#B06826"/>
<path d="M345.95 31.4792C345.805 29.3453 345.37 26.9604 343.921 25.0775C342.761 23.6967 340.442 22.567 338.268 23.3202C337.978 23.4457 337.688 23.5712 337.543 23.6967C336.238 24.4499 335.514 25.8306 334.789 26.9604C333.774 28.5922 332.904 30.3495 332.18 32.1069C332.18 32.2324 332.035 32.3579 332.035 32.4834C332.035 32.609 331.89 32.609 331.89 32.7345V32.86C331.31 34.1152 331.02 35.496 331.02 36.8768C331.02 40.6425 333.484 44.2827 337.978 44.9103C340.007 45.1614 342.036 44.7848 343.486 43.6551C345.08 42.3999 345.66 40.517 345.95 38.6341C346.24 36.2492 346.24 33.8642 345.95 31.4792Z" fill="#FF9100"/>
<path d="M329.854 1.41183H329.229H316.502C315.866 1.43647 315.866 1.31188 315.866 1.81023V7.79049V7.91508V9.41014C315.97 9.41014 316.085 9.56359 316.189 9.65519C318.171 10.8459 320.674 10.9375 322.865 10.3879C326.829 9.472 330.063 6.17466 330.063 2.51095C329.959 2.14458 329.959 1.77821 329.854 1.41183Z" fill="#FF9100"/>
<path d="M360.002 1.41183H352.074C351.97 2.05298 351.97 2.78573 351.97 3.42688C351.97 4.98396 351.97 6.81581 352.909 8.2813C353.639 9.47201 354.995 10.2048 356.456 9.5636C358.125 8.92245 358.959 7.09059 359.481 5.7167C359.794 4.70918 360.002 3.70166 360.107 2.69413C360.107 2.23617 360.107 1.77821 360.002 1.41183Z" fill="#FF9100"/>
<path d="M425.619 35.8508C424.471 34.6601 422.593 33.3778 420.09 32.0039C419.985 32.0039 419.985 31.9123 419.881 31.9123C419.777 31.8207 419.568 31.8207 419.464 31.6375C416.543 30.0804 412.892 28.2486 408.302 26.3251C408.302 26.3251 408.302 26.3251 408.197 26.3251H408.093C408.093 26.3251 407.989 26.3251 407.989 26.2335C407.989 26.2335 407.989 26.2335 407.885 26.2335C407.885 26.2335 407.885 26.2335 407.78 26.2335H407.676C407.676 26.2335 407.676 26.2335 407.572 26.2335C407.467 26.2335 407.363 26.1419 407.259 26.1419C406.424 25.7756 405.59 25.5008 404.755 25.1344C400.895 23.5773 398.6 22.295 397.766 21.1959C396.931 20.0968 396.514 18.4481 396.514 16.3415C396.514 14.6928 396.931 13.4105 397.661 12.5862C398.392 11.7618 399.539 11.3039 400.999 11.3039C402.356 11.3039 403.295 11.5787 403.92 12.2198C404.546 12.861 404.755 14.2348 404.755 16.5247V21.2875H408.197H409.658H427.809V18.7229C427.809 13.5937 427.079 9.92998 425.619 7.82334C424.158 5.71671 421.133 3.88485 416.647 2.51095C414.144 1.77821 411.431 1.22865 408.406 0.862282H408.302H408.197C407.989 0.862282 407.78 0.770689 407.467 0.770689H407.363C407.363 0.770689 407.363 0.770689 407.259 0.770689C405.068 0.587504 402.773 0.495911 400.269 0.495911C399.852 0.495911 399.539 0.495911 399.122 0.495911C399.017 0.495911 398.913 0.587504 398.913 0.587504C398.183 0.587504 397.557 0.587504 396.827 0.679096C396.722 0.679096 396.722 0.679096 396.618 0.679096C392.341 0.862282 388.481 1.50343 385.247 2.51095C381.075 3.79326 378.049 5.62511 376.276 7.91494C374.398 10.2048 373.459 13.8685 373.459 18.8145C373.459 22.295 374.085 25.0428 375.442 27.3326C376.798 29.5309 378.362 31.2711 380.449 32.5534C381.075 32.9198 382.014 33.4694 383.057 34.0189C383.057 34.0189 383.161 34.0189 383.161 34.1105C383.474 34.2937 383.787 34.3853 384.1 34.5685H384.204C384.204 34.5685 384.204 34.5685 384.309 34.5685C386.499 35.6676 389.212 36.9499 392.654 38.507C393.593 38.9649 394.427 39.3313 395.262 39.6977H395.366C395.471 39.6977 395.575 39.7893 395.679 39.8809C400.061 41.8959 402.877 43.3614 404.129 44.3689C405.694 45.5596 406.424 48.0326 406.424 51.8795C406.424 53.6198 406.007 54.9021 405.172 55.818C404.338 56.734 403.19 57.1003 401.521 57.1003C399.852 57.1003 398.705 56.734 398.079 56.0928C397.453 55.3601 397.14 53.803 397.14 51.4216V43.5446H374.19V47.7578C374.19 52.6123 374.92 56.3676 376.38 59.0238C377.006 60.1229 377.841 61.1304 378.988 62.0463C378.988 62.0463 378.988 62.0463 379.093 62.0463C379.197 62.1379 379.301 62.1379 379.406 62.2295C379.51 62.3211 379.51 62.3211 379.614 62.4127C381.179 63.6034 383.161 64.6109 385.665 65.5269C386.812 65.8932 387.96 66.2596 389.107 66.626H389.212C389.316 66.626 389.42 66.7176 389.524 66.7176C389.629 66.7176 389.733 66.7176 389.837 66.8092H389.942C393.697 67.6335 397.87 68.0915 402.564 68.0915C408.615 68.0915 413.831 67.3587 418.421 65.8932C422.906 64.4278 426.036 62.5959 427.601 60.3977C429.165 58.1994 430 54.8105 430 50.2309C429.896 43.2698 428.435 38.6901 425.619 35.8508Z" fill="#B06826"/>
<path d="M388.42 58.6427C387.168 56.7193 384.769 55.437 382.37 56.5361C380.283 57.5436 379.031 59.5586 378.301 61.4821L378.301 61.4883L378.443 61.6129L378.585 61.7374L378.823 61.9014L378.927 61.9817L379.136 62.1232C380.388 63.2224 381.952 63.9551 383.517 64.6878C384.456 65.1458 385.395 65.5122 386.438 65.8786C387.377 66.2449 388.316 66.5197 389.359 66.7029C389.463 66.7029 389.833 66.9372 389.937 66.8456V66.5964C389.937 66.5048 389.937 66.5634 389.937 66.4718C389.985 66.2803 389.985 66.1533 389.985 65.9702C389.985 65.787 390.089 65.5122 390.089 65.329C390.089 63.1308 389.672 60.6578 388.42 58.6427Z" fill="#FF9100"/>
<path d="M396.61 33.2738C396.193 30.8008 394.941 27.9614 392.75 26.3127C390.559 24.664 387.326 24.3893 385.344 26.4043C384.405 27.3202 383.883 28.6025 383.57 29.7932C383.257 31.1671 383.049 32.6326 383.153 34.0065L383.126 34.0787L383.268 34.2033L383.466 34.258L384.119 34.5771H384.261L384.545 34.7017C384.545 34.7017 385.239 35.1056 385.761 35.3804C386.804 35.93 387.847 36.3879 388.89 36.8459C390.768 37.6702 392.542 38.4946 394.419 39.3189C394.732 39.5021 395.045 39.6853 395.358 39.8684C395.462 39.96 395.671 39.96 395.775 39.96C395.775 39.96 395.88 39.96 395.88 40.0516C395.88 39.96 395.88 39.96 395.984 39.8684C396.088 39.7769 396.088 39.6853 396.088 39.5021C396.401 38.6777 396.61 37.8534 396.714 37.1207C396.819 35.8384 396.819 34.5561 396.61 33.2738Z" fill="#FF9100"/>
<path d="M421.991 19.828C421.261 18.1793 420.113 16.5306 418.444 15.5231C416.775 14.5156 414.584 14.5156 412.915 15.5231C410.933 16.6222 409.994 18.5457 409.264 20.3775C409.16 20.6523 409.056 21.0187 408.951 21.2934H410.086H421.438H421.678H422.513C422.304 20.7439 422.2 20.2859 421.991 19.828Z" fill="#FF9100"/>
<path d="M420.729 32.3345L420.194 32.0039L419.985 31.9123L419.777 31.8207C419.568 31.6375 418.942 31.3627 418.942 31.3627L418.421 31.0879C418.421 31.0879 420.09 32.0955 418.316 30.9963C416.543 29.8972 414.456 28.8897 412.474 28.157L412.073 27.9739C412.177 27.9739 411.969 27.9739 412.073 27.9739C412.073 27.9739 411.676 27.6917 411.364 27.6001L410.796 27.3509C410.81 27.3529 409.235 26.728 409.235 26.728L408.951 26.6034L408.667 26.4788L408.384 26.3542L408.302 26.3213L407.989 26.2296C407.989 26.2296 407.778 26.2296 407.674 26.2296H407.532C407.219 28.5195 407.363 30.8131 408.615 32.9198C409.762 34.6601 411.536 36.0339 413.831 36.3087C415.395 36.4919 416.96 36.2171 418.108 35.4844C418.733 35.2096 419.359 34.8432 419.881 34.2937C420.194 34.0189 421.58 32.8328 421.58 32.8328L420.729 32.3345Z" fill="#FF9100"/>
<path d="M408.388 1.15902C408.387 1.06744 408.386 0.975849 408.385 0.884262C408.281 0.885306 408.175 0.794764 408.071 0.795808C407.651 0.616811 407.233 0.529401 406.711 0.534622C406.294 0.538799 405.875 0.451389 405.458 0.455566C404.623 0.372333 403.787 0.2891 402.952 0.297454C401.908 0.216309 400.866 0.318339 399.72 0.421412C399.511 0.423501 399.407 0.424545 399.198 0.426634C398.781 0.430811 398.365 0.526575 397.949 0.622338C397.74 0.624427 397.427 0.627559 397.219 0.629648C397.124 1.36339 397.133 2.09608 397.247 2.82773C397.58 4.38158 398.644 5.92811 400.425 6.55147C403.886 7.89081 407.504 5.38142 408.196 2.44333C408.296 2.07594 408.292 1.80118 408.392 1.43378C408.391 1.3422 408.39 1.25061 408.388 1.15902Z" fill="#FF9100"/>
<path d="M135.718 1.41183H126.225H126.121H126.016C125.912 1.41183 125.912 1.41183 125.808 1.41183C125.704 1.41183 125.599 1.41183 125.599 1.50343C125.391 1.59502 125.286 1.68661 125.286 1.96139V10.1132C125.286 10.6627 126.329 10.6627 126.329 10.1132V9.74679C126.434 9.74679 126.642 9.74679 126.747 9.74679C126.851 9.92997 126.955 9.92997 127.06 10.0216V10.1132C127.164 10.5711 127.894 10.5711 128.103 10.1132C128.207 10.1132 128.311 10.0216 128.416 9.92997C128.729 10.1132 129.042 10.0216 129.146 9.74679C129.355 9.92997 129.668 9.92997 129.981 9.92997C130.502 9.83838 130.919 9.74679 131.337 9.47201C131.754 9.19723 132.067 8.92245 132.276 8.55608C132.484 8.64767 132.797 8.55608 132.901 8.37289C133.11 8.37289 133.319 8.37289 133.423 8.09811C133.632 8.09811 133.736 8.00652 133.84 7.82334C133.84 7.73174 133.84 7.73174 133.84 7.64015C133.945 7.64015 134.049 7.64015 134.153 7.54856C134.362 7.64015 134.675 7.54856 134.675 7.27378C134.675 7.09059 134.779 6.999 134.779 6.81581C134.988 6.81581 135.196 6.72422 135.301 6.54104C135.718 5.35033 135.822 4.06803 135.822 2.78573C135.822 2.69413 135.718 2.51095 135.718 2.51095C136.344 2.32776 136.344 1.41183 135.718 1.41183Z" fill="#FF9100"/>
<path d="M250.364 2.87734C249.738 2.87734 249.008 2.78575 248.382 2.78575C248.173 2.78575 248.069 2.78575 247.86 2.78575C247.86 2.78575 247.86 2.78575 247.86 2.69415C247.756 2.60256 247.652 2.51097 247.547 2.51097C247.443 2.51097 247.234 2.41938 247.13 2.41938C246.921 2.41938 246.713 2.41938 246.608 2.32778C246.504 2.32778 246.295 2.41938 246.295 2.51097C246.295 2.51097 246.295 2.51097 246.191 2.51097C245.774 2.41938 245.252 2.32778 244.731 2.32778C244.626 2.32778 244.626 2.32778 244.522 2.32778C244 2.23619 243.374 2.1446 242.749 2.05301C242.227 1.86982 241.914 2.60256 242.331 2.87734C243.062 3.15212 243.792 3.3353 244.522 3.4269C244.522 3.51849 244.626 3.70167 244.731 3.70167C245.67 4.15964 246.921 4.15964 247.965 3.88486C248.173 3.88486 248.277 3.70167 248.382 3.61008C248.382 3.61008 248.382 3.61008 248.486 3.61008C248.799 3.61008 249.216 3.51849 249.529 3.51849C249.842 3.4269 250.26 3.3353 250.572 3.24371C250.781 3.3353 250.781 2.87734 250.364 2.87734Z" fill="#FF9100"/>
<path d="M250.025 3.36708C250.025 2.88821 248.5 2.5 246.619 2.5C244.739 2.5 243.214 2.88821 243.214 3.36708C243.214 3.84596 244.739 4.23416 246.619 4.23416C248.5 4.23416 250.025 3.84596 250.025 3.36708Z" fill="#FF9100"/>
</svg>
